<svg xmlns="http://www.w3.org/2000/svg" xmlns:xlink="http://www.w3.org/1999/xlink" width="2048" viewBox="0 0 1536 1535.999932" height="2048" preserveAspectRatio="xMidYMid meet"><defs><g></g><clipPath id="80fc8a692d"><path d="M 19.757812 19.757812 L 1516.242188 19.757812 L 1516.242188 1516.242188 L 19.757812 1516.242188 Z M 19.757812 19.757812 " clip-rule="nonzero"></path></clipPath><clipPath id="3db3313bb4"><path d="M 768 19.757812 C 354.757812 19.757812 19.757812 354.757812 19.757812 768 C 19.757812 1181.242188 354.757812 1516.242188 768 1516.242188 C 1181.242188 1516.242188 1516.242188 1181.242188 1516.242188 768 C 1516.242188 354.757812 1181.242188 19.757812 768 19.757812 Z M 768 19.757812 " clip-rule="nonzero"></path></clipPath></defs><g clip-path="url(#80fc8a692d)"><g clip-path="url(#3db3313bb4)"><path fill="#9ccb66" d="M 19.757812 19.757812 L 1516.242188 19.757812 L 1516.242188 1516.242188 L 19.757812 1516.242188 Z M 19.757812 19.757812 " fill-opacity="1" fill-rule="nonzero"></path></g></g><g fill="#ffffff" fill-opacity="1"><g transform="translate(474.173081, 1118.596328)"><g><path d="M 400.59375 0 L 256.0625 0 L 256.0625 -557.125 L 83.515625 -503.609375 L 83.515625 -621.140625 L 385.09375 -729.171875 L 400.59375 -729.171875 Z M 400.59375 0 "></path></g></g></g></svg>