<svg xmlns="http://www.w3.org/2000/svg" xmlns:xlink="http://www.w3.org/1999/xlink" width="2048" viewBox="0 0 1536 1535.999932" height="2048" preserveAspectRatio="xMidYMid meet"><defs><g></g><clipPath id="545647b610"><path d="M 19.757812 19.757812 L 1516.242188 19.757812 L 1516.242188 1516.242188 L 19.757812 1516.242188 Z M 19.757812 19.757812 " clip-rule="nonzero"></path></clipPath><clipPath id="c0e10f8afa"><path d="M 768 19.757812 C 354.757812 19.757812 19.757812 354.757812 19.757812 768 C 19.757812 1181.242188 354.757812 1516.242188 768 1516.242188 C 1181.242188 1516.242188 1516.242188 1181.242188 1516.242188 768 C 1516.242188 354.757812 1181.242188 19.757812 768 19.757812 Z M 768 19.757812 " clip-rule="nonzero"></path></clipPath></defs><g clip-path="url(#545647b610)"><g clip-path="url(#c0e10f8afa)"><path fill="#f1cf56" d="M 19.757812 19.757812 L 1516.242188 19.757812 L 1516.242188 1516.242188 L 19.757812 1516.242188 Z M 19.757812 19.757812 " fill-opacity="1" fill-rule="nonzero"></path></g></g><g fill="#ffffff" fill-opacity="1"><g transform="translate(474.173081, 1118.59627)"><g><path d="M 548.625 0 L 49.515625 0 L 49.515625 -99.015625 L 285.0625 -350.078125 C 317.40625 -385.421875 341.328125 -416.257812 356.828125 -442.59375 C 372.335938 -468.9375 380.09375 -493.945312 380.09375 -517.625 C 380.09375 -549.957031 371.921875 -575.375 355.578125 -593.875 C 339.242188 -612.382812 315.90625 -621.640625 285.5625 -621.640625 C 252.882812 -621.640625 227.128906 -610.382812 208.296875 -587.875 C 189.460938 -565.375 180.046875 -535.785156 180.046875 -499.109375 L 35.015625 -499.109375 C 35.015625 -543.453125 45.597656 -583.960938 66.765625 -620.640625 C 87.929688 -657.316406 117.851562 -686.070312 156.53125 -706.90625 C 195.207031 -727.75 239.050781 -738.171875 288.0625 -738.171875 C 363.082031 -738.171875 421.347656 -720.164062 462.859375 -684.15625 C 504.367188 -648.144531 525.125 -597.300781 525.125 -531.625 C 525.125 -495.613281 515.785156 -458.9375 497.109375 -421.59375 C 478.441406 -384.25 446.4375 -340.738281 401.09375 -291.0625 L 235.546875 -116.53125 L 548.625 -116.53125 Z M 548.625 0 "></path></g></g></g></svg>