<svg xmlns="http://www.w3.org/2000/svg" xmlns:xlink="http://www.w3.org/1999/xlink" width="2048" viewBox="0 0 1536 1535.999932" height="2048" preserveAspectRatio="xMidYMid meet"><defs><g></g><clipPath id="d019e91868"><path d="M 19.757812 19.757812 L 1516.242188 19.757812 L 1516.242188 1516.242188 L 19.757812 1516.242188 Z M 19.757812 19.757812 " clip-rule="nonzero"></path></clipPath><clipPath id="896e40c620"><path d="M 768 19.757812 C 354.757812 19.757812 19.757812 354.757812 19.757812 768 C 19.757812 1181.242188 354.757812 1516.242188 768 1516.242188 C 1181.242188 1516.242188 1516.242188 1181.242188 1516.242188 768 C 1516.242188 354.757812 1181.242188 19.757812 768 19.757812 Z M 768 19.757812 " clip-rule="nonzero"></path></clipPath></defs><g clip-path="url(#d019e91868)"><g clip-path="url(#896e40c620)"><path fill="#9ccb66" d="M 19.757812 19.757812 L 1516.242188 19.757812 L 1516.242188 1516.242188 L 19.757812 1516.242188 Z M 19.757812 19.757812 " fill-opacity="1" fill-rule="nonzero"></path></g></g><g fill="#ffffff" fill-opacity="1"><g transform="translate(474.173081, 1118.595802)"><g><path d="M 196.546875 -428.09375 L 273.5625 -428.09375 C 310.238281 -428.09375 337.410156 -437.257812 355.078125 -455.59375 C 372.753906 -473.9375 381.59375 -498.28125 381.59375 -528.625 C 381.59375 -557.957031 372.835938 -580.789062 355.328125 -597.125 C 337.828125 -613.46875 313.738281 -621.640625 283.0625 -621.640625 C 255.394531 -621.640625 232.222656 -614.050781 213.546875 -598.875 C 194.878906 -583.707031 185.546875 -563.957031 185.546875 -539.625 L 41.015625 -539.625 C 41.015625 -577.632812 51.265625 -611.722656 71.765625 -641.890625 C 92.273438 -672.066406 120.945312 -695.65625 157.78125 -712.65625 C 194.625 -729.664062 235.21875 -738.171875 279.5625 -738.171875 C 356.582031 -738.171875 416.929688 -719.75 460.609375 -682.90625 C 504.285156 -646.0625 526.125 -595.300781 526.125 -530.625 C 526.125 -497.28125 515.953125 -466.601562 495.609375 -438.59375 C 475.273438 -410.59375 448.601562 -389.085938 415.59375 -374.078125 C 456.601562 -359.410156 487.191406 -337.40625 507.359375 -308.0625 C 527.535156 -278.726562 537.625 -244.054688 537.625 -204.046875 C 537.625 -139.367188 514.035156 -87.523438 466.859375 -48.515625 C 419.679688 -9.503906 357.25 10 279.5625 10 C 206.875 10 147.441406 -9.171875 101.265625 -47.515625 C 55.085938 -85.859375 32 -136.535156 32 -199.546875 L 176.546875 -199.546875 C 176.546875 -172.203125 186.796875 -149.863281 207.296875 -132.53125 C 227.796875 -115.195312 253.050781 -106.53125 283.0625 -106.53125 C 317.40625 -106.53125 344.328125 -115.613281 363.828125 -133.78125 C 383.335938 -151.945312 393.09375 -176.035156 393.09375 -206.046875 C 393.09375 -278.734375 353.082031 -315.078125 273.0625 -315.078125 L 196.546875 -315.078125 Z M 196.546875 -428.09375 "></path></g></g></g></svg>