<svg xmlns="http://www.w3.org/2000/svg" xmlns:xlink="http://www.w3.org/1999/xlink" width="2048" viewBox="0 0 1536 1535.999932" height="2048" preserveAspectRatio="xMidYMid meet"><defs><g></g><clipPath id="e79198d90d"><path d="M 19.757812 19.757812 L 1516.242188 19.757812 L 1516.242188 1516.242188 L 19.757812 1516.242188 Z M 19.757812 19.757812 " clip-rule="nonzero"></path></clipPath><clipPath id="b24e013e04"><path d="M 768 19.757812 C 354.757812 19.757812 19.757812 354.757812 19.757812 768 C 19.757812 1181.242188 354.757812 1516.242188 768 1516.242188 C 1181.242188 1516.242188 1516.242188 1181.242188 1516.242188 768 C 1516.242188 354.757812 1181.242188 19.757812 768 19.757812 Z M 768 19.757812 " clip-rule="nonzero"></path></clipPath></defs><g clip-path="url(#e79198d90d)"><g clip-path="url(#b24e013e04)"><path fill="#f1cf56" d="M 19.757812 19.757812 L 1516.242188 19.757812 L 1516.242188 1516.242188 L 19.757812 1516.242188 Z M 19.757812 19.757812 " fill-opacity="1" fill-rule="nonzero"></path></g></g><g fill="#ffffff" fill-opacity="1"><g transform="translate(474.173081, 1118.59627)"><g><path d="M 477.109375 -274.0625 L 559.625 -274.0625 L 559.625 -157.53125 L 477.109375 -157.53125 L 477.109375 0 L 332.578125 0 L 332.578125 -157.53125 L 34 -157.53125 L 27.5 -248.5625 L 331.078125 -728.171875 L 477.109375 -728.171875 Z M 171.546875 -274.0625 L 332.578125 -274.0625 L 332.578125 -531.125 L 323.078125 -514.625 Z M 171.546875 -274.0625 "></path></g></g></g></svg>