<svg xmlns="http://www.w3.org/2000/svg" xmlns:xlink="http://www.w3.org/1999/xlink" width="2048" viewBox="0 0 1536 1535.999932" height="2048" preserveAspectRatio="xMidYMid meet"><defs><g></g><clipPath id="275f805e36"><path d="M 19.757812 19.757812 L 1516.242188 19.757812 L 1516.242188 1516.242188 L 19.757812 1516.242188 Z M 19.757812 19.757812 " clip-rule="nonzero"></path></clipPath><clipPath id="c1495d7b3c"><path d="M 768 19.757812 C 354.757812 19.757812 19.757812 354.757812 19.757812 768 C 19.757812 1181.242188 354.757812 1516.242188 768 1516.242188 C 1181.242188 1516.242188 1516.242188 1181.242188 1516.242188 768 C 1516.242188 354.757812 1181.242188 19.757812 768 19.757812 Z M 768 19.757812 " clip-rule="nonzero"></path></clipPath></defs><g clip-path="url(#275f805e36)"><g clip-path="url(#c1495d7b3c)"><path fill="#f1cf56" d="M 19.757812 19.757812 L 1516.242188 19.757812 L 1516.242188 1516.242188 L 19.757812 1516.242188 Z M 19.757812 19.757812 " fill-opacity="1" fill-rule="nonzero"></path></g></g><g fill="#ffffff" fill-opacity="1"><g transform="translate(474.173081, 1118.595802)"><g><path d="M 71.015625 -358.078125 L 113.03125 -728.171875 L 521.125 -728.171875 L 521.125 -607.640625 L 231.546875 -607.640625 L 213.546875 -451.109375 C 247.890625 -469.441406 284.398438 -478.609375 323.078125 -478.609375 C 392.421875 -478.609375 446.765625 -457.101562 486.109375 -414.09375 C 525.453125 -371.082031 545.125 -310.898438 545.125 -233.546875 C 545.125 -186.535156 535.203125 -144.441406 515.359375 -107.265625 C 495.523438 -70.097656 467.101562 -41.257812 430.09375 -20.75 C 393.082031 -0.25 349.40625 10 299.0625 10 C 255.050781 10 214.207031 1.082031 176.53125 -16.75 C 138.863281 -34.59375 109.109375 -59.679688 87.265625 -92.015625 C 65.429688 -124.359375 53.847656 -161.203125 52.515625 -202.546875 L 195.546875 -202.546875 C 198.546875 -172.203125 209.128906 -148.613281 227.296875 -131.78125 C 245.472656 -114.945312 269.226562 -106.53125 298.5625 -106.53125 C 331.238281 -106.53125 356.410156 -118.28125 374.078125 -141.78125 C 391.753906 -165.289062 400.59375 -198.550781 400.59375 -241.5625 C 400.59375 -282.894531 390.421875 -314.5625 370.078125 -336.5625 C 349.742188 -358.570312 320.90625 -369.578125 283.5625 -369.578125 C 249.21875 -369.578125 221.378906 -360.578125 200.046875 -342.578125 L 186.046875 -329.578125 Z M 71.015625 -358.078125 "></path></g></g></g></svg>