<svg xmlns="http://www.w3.org/2000/svg" xmlns:xlink="http://www.w3.org/1999/xlink" width="2048" viewBox="0 0 1536 1535.999932" height="2048" preserveAspectRatio="xMidYMid meet"><defs><g></g><clipPath id="e2b07f0ee5"><path d="M 19.757812 19.757812 L 1516.242188 19.757812 L 1516.242188 1516.242188 L 19.757812 1516.242188 Z M 19.757812 19.757812 " clip-rule="nonzero"></path></clipPath><clipPath id="1d1c8c48e7"><path d="M 768 19.757812 C 354.757812 19.757812 19.757812 354.757812 19.757812 768 C 19.757812 1181.242188 354.757812 1516.242188 768 1516.242188 C 1181.242188 1516.242188 1516.242188 1181.242188 1516.242188 768 C 1516.242188 354.757812 1181.242188 19.757812 768 19.757812 Z M 768 19.757812 " clip-rule="nonzero"></path></clipPath></defs><g clip-path="url(#e2b07f0ee5)"><g clip-path="url(#1d1c8c48e7)"><path fill="#f1cf56" d="M 19.757812 19.757812 L 1516.242188 19.757812 L 1516.242188 1516.242188 L 19.757812 1516.242188 Z M 19.757812 19.757812 " fill-opacity="1" fill-rule="nonzero"></path></g></g><g fill="#ffffff" fill-opacity="1"><g transform="translate(474.173081, 1118.596388)"><g><path d="M 441.59375 -735.671875 L 441.59375 -616.640625 L 427.59375 -616.640625 C 362.25 -615.640625 309.65625 -598.632812 269.8125 -565.625 C 229.96875 -532.625 206.046875 -486.78125 198.046875 -428.09375 C 236.722656 -467.4375 285.566406 -487.109375 344.578125 -487.109375 C 407.921875 -487.109375 458.265625 -464.4375 495.609375 -419.09375 C 532.953125 -373.75 551.625 -314.070312 551.625 -240.0625 C 551.625 -192.707031 541.367188 -149.859375 520.859375 -111.515625 C 500.359375 -73.179688 471.351562 -43.34375 433.84375 -22 C 396.34375 -0.664062 353.914062 10 306.5625 10 C 229.882812 10 167.957031 -16.671875 120.78125 -70.015625 C 73.601562 -123.359375 50.015625 -194.539062 50.015625 -283.5625 L 50.015625 -335.578125 C 50.015625 -414.597656 64.929688 -484.363281 94.765625 -544.875 C 124.609375 -605.382812 167.453125 -652.226562 223.296875 -685.40625 C 279.140625 -718.582031 343.90625 -735.335938 417.59375 -735.671875 Z M 300.5625 -371.078125 C 277.226562 -371.078125 256.054688 -364.992188 237.046875 -352.828125 C 218.046875 -340.660156 204.046875 -324.570312 195.046875 -304.5625 L 195.046875 -260.5625 C 195.046875 -212.21875 204.546875 -174.457031 223.546875 -147.28125 C 242.554688 -120.113281 269.226562 -106.53125 303.5625 -106.53125 C 334.570312 -106.53125 359.660156 -118.78125 378.828125 -143.28125 C 398.003906 -167.789062 407.59375 -199.546875 407.59375 -238.546875 C 407.59375 -278.222656 397.921875 -310.226562 378.578125 -334.5625 C 359.242188 -358.90625 333.238281 -371.078125 300.5625 -371.078125 Z M 300.5625 -371.078125 "></path></g></g></g></svg>