<svg xmlns="http://www.w3.org/2000/svg" xmlns:xlink="http://www.w3.org/1999/xlink" width="2048" viewBox="0 0 1536 1535.999932" height="2048" preserveAspectRatio="xMidYMid meet"><defs><clipPath id="9468891d07"><path d="M 19.757812 19.757812 L 1516.242188 19.757812 L 1516.242188 1516.242188 L 19.757812 1516.242188 Z M 19.757812 19.757812 " clip-rule="nonzero"></path></clipPath><clipPath id="329d908476"><path d="M 768 19.757812 C 354.757812 19.757812 19.757812 354.757812 19.757812 768 C 19.757812 1181.242188 354.757812 1516.242188 768 1516.242188 C 1181.242188 1516.242188 1516.242188 1181.242188 1516.242188 768 C 1516.242188 354.757812 1181.242188 19.757812 768 19.757812 Z M 768 19.757812 " clip-rule="nonzero"></path></clipPath><clipPath id="78741ade87"><path d="M 469.230469 418.664062 L 1178 418.664062 L 1178 1118 L 469.230469 1118 Z M 469.230469 418.664062 " clip-rule="nonzero"></path></clipPath><clipPath id="c59509f1ba"><path d="M 1157.875 799.210938 L 531.609375 1112.539062 C 518.25 1119.222656 502.382812 1118.511719 489.671875 1110.660156 C 476.964844 1102.808594 469.230469 1088.933594 469.230469 1073.996094 L 469.230469 462.007812 C 469.230469 447.070312 476.964844 433.199219 489.671875 425.347656 C 502.382812 417.496094 518.25 416.785156 531.609375 423.46875 L 1157.875 736.792969 C 1169.695312 742.707031 1177.15625 754.789062 1177.15625 768.003906 C 1177.15625 781.21875 1169.695312 793.300781 1157.875 799.210938 Z M 1157.875 799.210938 " clip-rule="nonzero"></path></clipPath></defs><g clip-path="url(#9468891d07)"><g clip-path="url(#329d908476)"><path fill="#9ccb66" d="M 19.757812 19.757812 L 1516.242188 19.757812 L 1516.242188 1516.242188 L 19.757812 1516.242188 Z M 19.757812 19.757812 " fill-opacity="1" fill-rule="nonzero"></path></g></g><g clip-path="url(#78741ade87)"><g clip-path="url(#c59509f1ba)"><path fill="#ffffff" d="M 1220.253906 392.257812 L 1220.253906 1143.285156 L 469.230469 1143.285156 L 469.230469 392.257812 Z M 1220.253906 392.257812 " fill-opacity="1" fill-rule="nonzero"></path></g></g></svg>