<svg xmlns="http://www.w3.org/2000/svg" xmlns:xlink="http://www.w3.org/1999/xlink" width="2048" viewBox="0 0 1536 1535.999932" height="2048" preserveAspectRatio="xMidYMid meet"><defs><clipPath id="b70aa187bb"><path d="M 19.757812 19.757812 L 1516.242188 19.757812 L 1516.242188 1516.242188 L 19.757812 1516.242188 Z M 19.757812 19.757812 " clip-rule="nonzero"></path></clipPath><clipPath id="57df27b5e7"><path d="M 768 19.757812 C 354.757812 19.757812 19.757812 354.757812 19.757812 768 C 19.757812 1181.242188 354.757812 1516.242188 768 1516.242188 C 1181.242188 1516.242188 1516.242188 1181.242188 1516.242188 768 C 1516.242188 354.757812 1181.242188 19.757812 768 19.757812 Z M 768 19.757812 " clip-rule="nonzero"></path></clipPath><clipPath id="7a94d5f43a"><path d="M 358 418 L 1066.757812 418 L 1066.757812 1117.332031 L 358 1117.332031 Z M 358 418 " clip-rule="nonzero"></path></clipPath><clipPath id="7f0470ac6b"><path d="M 378.113281 736.785156 L 1004.378906 423.457031 C 1017.738281 416.773438 1033.609375 417.484375 1046.316406 425.335938 C 1059.023438 433.1875 1066.757812 447.058594 1066.757812 462 L 1066.757812 1073.984375 C 1066.757812 1088.925781 1059.023438 1102.796875 1046.316406 1110.648438 C 1033.609375 1118.5 1017.738281 1119.210938 1004.378906 1112.527344 L 378.113281 799.199219 C 366.296875 793.289062 358.832031 781.207031 358.832031 767.992188 C 358.832031 754.777344 366.296875 742.695312 378.113281 736.785156 Z M 378.113281 736.785156 " clip-rule="nonzero"></path></clipPath></defs><g clip-path="url(#b70aa187bb)"><g clip-path="url(#57df27b5e7)"><path fill="#9ccb66" d="M 19.757812 19.757812 L 1516.242188 19.757812 L 1516.242188 1516.242188 L 19.757812 1516.242188 Z M 19.757812 19.757812 " fill-opacity="1" fill-rule="nonzero"></path></g></g><g clip-path="url(#7a94d5f43a)"><g clip-path="url(#7f0470ac6b)"><path fill="#ffffff" d="M 315.734375 1143.734375 L 315.734375 392.710938 L 1066.757812 392.710938 L 1066.757812 1143.734375 Z M 315.734375 1143.734375 " fill-opacity="1" fill-rule="nonzero"></path></g></g></svg>